<svg xmlns="http://www.w3.org/2000/svg" width="97" height="20" fill="none"><path fill="#fff" d="M30.117.664H27.88l-2.906 18.672H35.62l.284-1.854h-8.41L30.118.664ZM48.092.428c-5.58 0-9.873 4.806-9.873 10.76 0 4.806 3.316 8.384 8.407 8.384 5.426 0 9.72-4.544 9.72-10.733-.001-4.572-2.958-8.41-8.254-8.41Zm-1.44 17.282c-3.574 0-6.12-2.455-6.12-6.53 0-4.83 2.9-8.931 7.54-8.931 3.858 0 5.966 2.945 5.966 6.58-.006 5.1-3.015 8.887-7.387 8.887v-.006ZM68.2 11.783h5.451c-.54 3.447-2.47 5.955-6.145 5.955-4.038 0-6.095-2.612-6.095-6.607 0-4.91 2.752-8.906 7.251-8.906 2.727 0 4.757 1.28 5.014 4.073h2.212C75.631 2.302 72.442.422 68.714.422c-5.553 0-9.616 4.884-9.616 10.707 0 4.806 3.01 8.445 8.358 8.445 4.963 0 8.075-2.924 8.64-9.662h-7.588l-.308 1.871ZM88.745.428c-5.58 0-9.873 4.806-9.873 10.76 0 4.806 3.316 8.384 8.407 8.384 5.426 0 9.721-4.544 9.721-10.733C97 4.267 94.041.43 88.745.43Zm-1.44 17.282c-3.574 0-6.12-2.455-6.12-6.53 0-4.83 2.9-8.931 7.54-8.931 3.859 0 5.966 2.945 5.966 6.58-.006 5.1-3.014 8.887-7.386 8.887v-.006ZM17.718 0H3.111L0 20h14.508l3.21-20Z"/></svg>